<svg id="Capa_1" data-name="Capa 1" xmlns="http://www.w3.org/2000/svg" viewBox="0 0 100 100"><defs><style>.cls-1{fill:#f8b133;fill-rule:evenodd;}</style></defs><path class="cls-1" d="M21.3,52.38H33.21c2.67,0,7.2,1.17,7.2,6.23,0,2.65-2.08,5.75-4.71,5.75H21.3Zm38.32-23.9H81.07v7.13H59.62Zm18.6,23.9H62.49a7.71,7.71,0,0,1,7.89-7.1c4.15,0,7.22,2.91,7.84,7.1ZM62,57.14H88.28V56c0-9.87-7.12-17.93-17.9-17.93s-18,8.06-18,17.93,7.12,17.95,18,17.95,15.93-6.17,17.54-14.38h-9.7c-.88,4.22-3.36,7.22-7.84,7.22s-8-4.26-8.43-9.61ZM50.06,59.53a12.06,12.06,0,0,0-8.14-11.25A12.19,12.19,0,0,0,47.61,38,12,12,0,0,0,35.7,26.09h-24V73.91h24A14.42,14.42,0,0,0,50.06,59.53ZM33.21,45.28H21.3V35.61H33.21a4.84,4.84,0,1,1,0,9.67Z"/></svg>