<svg id="Capa_1" data-name="Capa 1" xmlns="http://www.w3.org/2000/svg" viewBox="0 0 170 202"><defs><style>.cls-1{fill:#000100;}</style></defs><polygon class="cls-1" points="85.17 103.46 48.92 93.74 48.92 86.19 85.14 95.89 128.45 84.28 128.45 76.86 85.13 88.47 41.76 76.85 41.76 150.75 48.92 152.67 48.92 101.16 85.19 110.88 128.5 99.27 128.5 91.85 85.17 103.46"/><polygon class="cls-1" points="128.45 106.66 128.45 106.66 85.14 118.26 56.08 110.47 56.08 154.59 63.26 156.51 63.26 119.83 85.13 125.68 85.15 125.68 121.28 116 121.28 145.27 85.15 154.95 70.43 151 70.43 158.43 85.15 162.37 85.15 162.37 128.5 150.76 128.45 106.66"/><polygon class="cls-1" points="157.01 28.5 156.99 28.49 156.99 28.46 156.92 28.48 85.1 9.56 12.95 28.5 12.95 47.03 85.14 66.2 135.59 52.68 135.59 60.07 85.13 73.59 27.41 58.13 27.42 162.17 85.12 177.63 142.77 162.19 142.79 162.18 142.79 73.02 135.62 74.94 135.62 156.68 85.13 170.21 34.58 156.66 34.58 67.47 85.14 81.01 142.77 65.57 142.77 58.15 142.77 50.76 142.79 43.33 85.13 58.78 20.19 41.53 20.19 33.99 85.11 16.98 149.82 34.04 149.82 167.78 85.23 185.02 20.19 167.76 20.19 56.46 13.01 54.41 12.95 173.26 85.24 192.44 157.05 173.27 157.01 28.5"/><polygon class="cls-1" points="85.12 24.34 33.92 37.77 47.97 41.48 85.11 31.75 122.04 41.49 136.12 37.8 85.12 24.34"/></svg>