<svg id="Capa_1" data-name="Capa 1" xmlns="http://www.w3.org/2000/svg" viewBox="0 0 100 100"><defs><style>.cls-1{fill:#f8b133;fill-rule:evenodd;}</style></defs><path class="cls-1" d="M32.38,50A17.62,17.62,0,1,1,50,67.63,17.65,17.65,0,0,1,32.38,50Zm35.83-34.5H31.8A16.36,16.36,0,0,0,15.5,31.8V68.2A16.38,16.38,0,0,0,31.8,84.51H68.21A16.35,16.35,0,0,0,84.5,68.2V31.8A16.32,16.32,0,0,0,68.21,15.49ZM31.8,19.58H68.21A12.23,12.23,0,0,1,80.43,31.8V68.2A12.25,12.25,0,0,1,68.21,80.43H31.8A12.25,12.25,0,0,1,19.57,68.2V31.8A12.23,12.23,0,0,1,31.8,19.58Zm40,5.13a3.59,3.59,0,1,0,3.59,3.58,3.58,3.58,0,0,0-3.59-3.58ZM72.22,50A22.25,22.25,0,1,0,50,72.23,22.24,22.24,0,0,0,72.22,50Z"/></svg>