<svg id="Capa_1" data-name="Capa 1" xmlns="http://www.w3.org/2000/svg" viewBox="0 0 397 202"><defs><style>.cls-1{fill:#000100;}.cls-2{font-size:62.98px;font-family:TitilliumWeb-Black, Titillium Web;font-weight:800;}</style></defs><polygon class="cls-1" points="86.41 104.98 52.42 95.87 52.42 88.79 86.37 97.88 126.98 87 126.98 80.04 86.36 90.92 45.71 80.03 45.71 149.31 52.42 151.11 52.42 102.83 86.42 111.93 127.02 101.05 127.02 94.09 86.41 104.98"/><polygon class="cls-1" points="126.98 107.98 126.98 107.98 86.37 118.86 59.13 111.55 59.13 152.92 65.86 154.72 65.86 120.32 86.36 125.82 86.38 125.82 120.25 116.74 120.25 144.18 86.38 153.25 72.59 149.55 72.59 156.52 86.38 160.21 86.39 160.21 127.02 149.32 126.98 107.98"/><polygon class="cls-1" points="153.75 34.7 153.74 34.7 153.74 34.67 153.67 34.68 86.34 16.94 18.7 34.7 18.7 52.08 86.37 70.05 133.68 57.37 133.68 64.3 86.36 76.98 32.25 62.48 32.26 160.02 86.36 174.52 140.4 160.04 140.42 160.03 140.42 76.44 133.7 78.24 133.7 154.88 86.36 167.56 38.97 154.86 38.97 71.24 86.37 83.94 140.4 69.46 140.4 62.5 140.4 55.57 140.43 48.61 86.36 63.09 25.48 46.92 25.48 39.85 86.34 23.9 147.02 39.9 147.02 165.28 86.46 181.45 25.48 165.26 25.48 60.91 18.75 58.99 18.7 170.42 86.46 188.4 153.79 170.43 153.75 34.7"/><polygon class="cls-1" points="86.36 30.8 38.35 43.39 51.53 46.87 86.34 37.75 120.97 46.88 134.16 43.42 86.36 30.8"/><text class="cls-2" transform="translate(164.46 78.56)">SIMPLE<tspan x="0" y="46.06">MENTE</tspan><tspan x="0" y="92.13">ZAKA</tspan></text></svg>