<svg id="Capa_1" data-name="Capa 1" xmlns="http://www.w3.org/2000/svg" viewBox="0 0 100 100"><defs><style>.cls-1{fill:#f8b133;}</style></defs><path class="cls-1" d="M82,20.81H18a8.32,8.32,0,0,0-8.31,8.31V70.88A8.32,8.32,0,0,0,18,79.19H82a8.32,8.32,0,0,0,8.31-8.31V29.12A8.32,8.32,0,0,0,82,20.81Zm-2.74,6.12L51.9,48.61a3,3,0,0,1-3.8,0L20.77,26.93Zm4.92,43.95A2.19,2.19,0,0,1,82,73.07H18a2.19,2.19,0,0,1-2.18-2.19v-40L44.29,53.4a9.19,9.19,0,0,0,11.42,0L84.15,30.84v40Z"/><path class="cls-1" d="M82,79.26H18a8.39,8.39,0,0,1-8.38-8.38V29.12A8.39,8.39,0,0,1,18,20.74H82a8.39,8.39,0,0,1,8.38,8.38V70.88A8.39,8.39,0,0,1,82,79.26ZM18,20.88a8.25,8.25,0,0,0-8.24,8.24V70.88A8.25,8.25,0,0,0,18,79.12H82a8.25,8.25,0,0,0,8.24-8.24V29.12A8.25,8.25,0,0,0,82,20.88ZM82,73.14H18a2.26,2.26,0,0,1-2.25-2.26V30.69L44.34,53.35a9.13,9.13,0,0,0,11.33,0L84.22,30.69V70.88A2.26,2.26,0,0,1,82,73.14ZM15.92,31V70.88A2.12,2.12,0,0,0,18,73H82a2.12,2.12,0,0,0,2.11-2.12V31L55.75,53.46a9.23,9.23,0,0,1-11.5,0ZM50,49.34a3.17,3.17,0,0,1-2-.68L20.57,26.86H79.43L52,48.66A3.17,3.17,0,0,1,50,49.34ZM21,27,48.14,48.55a3,3,0,0,0,3.72,0L79,27Z"/></svg>